# xmcd
#
# Track frame offsets:
#	150
#	13393
#	34678
#	52636
#	67238
#	81946
#	97675
#	113480
#	126468
#	140046
#	154850
#	167289
#	181006
#	196157
#	212621
#	228387
#
# Disc length: 3271 seconds
#
# Revision: 1
# Processed by: cddbd v1.5.2PL0 Copyright (c) Steve Scherf et al.
# Submitted via: audiograbber 1.83.01
#
DISCID=cc0cc510
DTITLE=Tanya Tucker - The Classic Country Collection (Live)
DYEAR=2015
DGENRE=Country
TTITLE0=Daddy and Home (Live)
TTITLE1=My Arms Stay Open (Live)
TTITLE2=Tell Me About It (Live)
TTITLE3=You've Got Me To Hold Onto (Live)
TTITLE4=Just Another Love (Live)
TTITLE5=Soon (Live)
TTITLE6=Old Weakness (Live)
TTITLE7=One Love At A Time (Live)
TTITLE8=Without You (Live)
TTITLE9=Can I See You Tonight (Live)
TTITLE10=Don't Believe My Heart (Live)
TTITLE11=If Your Heart Ain't Busy (Live)
TTITLE12=Don't Go Out With Him (Live)
TTITLE13=Little Things (Live)
TTITLE14=Here's Some Love (Live)
TTITLE15=Spring (Live)
EXTD=
EXTT0=
EXTT1=
EXTT2=
EXTT3=
EXTT4=
EXTT5=
EXTT6=
EXTT7=
EXTT8=
EXTT9=
EXTT10=
EXTT11=
EXTT12=
EXTT13=
EXTT14=
EXTT15=
PLAYORDER=
